<svg width="96" height="225" viewBox="0 0 96 225" fill="none" xmlns="http://www.w3.org/2000/svg">
<path d="M48.7949 179.869C29.2199 179.869 15.2875 160.846 21.1942 142.183L33.3149 103.888H64.275L76.3957 142.183C82.3024 160.846 68.37 179.869 48.7949 179.869" fill="#E3E2FF"/>
<path d="M48.7909 179.869C40.1787 179.869 32.6823 176.191 27.4688 170.464C31.9382 173.444 37.3849 175.213 43.3442 175.213C62.9444 175.213 76.8653 156.171 70.9523 137.548L60.3371 103.888H64.2951L76.399 142.204C82.3121 160.827 68.3912 179.869 48.7909 179.869" fill="#CFCFF6"/>
<path d="M57.6158 174.493C54.821 176.506 51.4916 177.512 48.1623 177.512C44.7951 177.512 41.4289 176.481 38.621 174.431C28.248 166.816 34.4971 152.256 34.5586 152.119L37.168 144.38C37.2546 144.119 37.4657 143.932 37.7766 143.958C38.0497 143.97 38.2855 144.169 38.36 144.442C39.4907 149.175 41.9131 151.324 42.82 151.983C45.5408 149.2 44.8696 139.92 44.3608 136.442C44.3235 136.218 44.4228 135.982 44.6092 135.845C44.8077 135.709 45.0566 135.696 45.2677 135.808C50.361 138.578 52.8827 146.405 53.777 149.859C54.9822 146.281 53.8143 140.057 53.7896 139.982C53.7397 139.721 53.8642 139.473 54.0753 139.336C54.299 139.199 54.5847 139.212 54.7837 139.374C60.0136 143.398 62.7963 153.113 62.9081 153.523C66.0763 165.412 61.7775 171.487 57.6158 174.493" fill="#F8B838"/>
<path d="M57.6388 174.514C54.845 176.516 51.4931 177.494 48.1878 177.494C44.7891 177.494 41.4372 176.47 38.6434 174.421C37.0601 173.257 35.8492 171.907 34.9648 170.464C37.5259 172.047 40.4583 172.839 43.3923 172.839C46.7442 172.839 50.0494 171.861 52.8899 169.859C57.0333 166.833 61.3173 160.734 58.1502 148.861C58.104 148.582 56.6615 143.647 54.0542 139.364L54.1004 139.318C54.2857 139.178 54.5656 139.224 54.7983 139.364C60.0124 143.415 62.8061 153.098 62.8991 153.517C66.0646 165.389 61.7821 171.488 57.6388 174.514" fill="#EBAF21"/>
<path d="M83.2283 89.0581H83.2235C81.937 89.0581 80.8956 88.0146 80.8956 86.7281C80.8956 85.4436 81.937 84.4028 83.2235 84.4028H83.2283C83.9871 84.4028 84.674 84.0845 85.165 83.5069C85.656 82.9297 85.8561 82.1977 85.7332 81.4473L84.1782 72.0767C83.9734 70.799 83.5875 69.6149 83.0235 68.5373L78.6039 59.9691C77.5631 57.9526 76.9539 55.7796 76.7948 53.511L74.9395 26.6496C74.7441 23.7283 73.5531 21.0233 71.68 19.2252C70.6748 18.259 69.5153 17.5338 68.2246 17.0632C65.9875 16.2493 63.6138 15.2899 61.4408 13.799L56.5712 10.4481C54.4617 9.00186 52.6616 7.38128 51.2201 5.6352C50.0837 4.25776 49.3469 3.86653 49.1557 3.83239C48.7193 3.96473 48.4468 3.93953 48.0193 3.81192C48.0193 3.86654 47.2826 4.25775 46.1551 5.63099C44.7141 7.37445 42.9134 8.99293 40.7992 10.4481L36.262 13.5669C34.1111 15.0446 31.8199 16.0492 29.0419 17.1042C27.9916 17.5044 26.996 18.0951 26.0959 18.8634C24.0042 20.6436 22.6809 23.451 22.463 26.5704L20.5714 53.511C20.417 55.7775 19.8079 57.9573 18.7618 59.9807L14.3564 68.5215C13.7746 69.6873 13.3786 70.8836 13.1969 72.052L11.6283 81.4793C11.5054 82.2182 11.7055 82.9408 12.1923 83.5158C12.6786 84.0866 13.3607 84.4028 14.1106 84.4028C15.3977 84.4028 16.4386 85.4436 16.4386 86.7307C16.4386 88.0173 15.3977 89.0581 14.1106 89.0581C12.0012 89.0581 10.0098 88.1354 8.64605 86.528C7.27754 84.9184 6.69096 82.8 7.0365 80.7179L8.60037 71.3132C8.85033 69.6921 9.39175 68.0347 10.2052 66.412L14.6247 57.8439C15.3794 56.3866 15.8158 54.8228 15.925 53.1901L17.8165 26.2427C18.1253 21.8872 20.0394 17.9045 23.0768 15.3172C24.3907 14.2033 25.8412 13.3395 27.3867 12.7529C29.8559 11.8166 31.8561 10.9433 33.6248 9.72969L38.1625 6.61037C39.9217 5.40098 41.3994 4.07606 42.5589 2.67079C44.6637 0.109168 46.7464 -1.03669 48.6831 -0.791448C50.6608 -1.05034 52.7025 0.115995 54.812 2.67079C55.9757 4.08289 57.4534 5.40781 59.2085 6.61037L64.0781 9.96129C65.8189 11.157 67.8654 11.9799 69.8199 12.6873C71.7251 13.3825 73.4344 14.4533 74.9033 15.8675C77.6403 18.4932 79.3044 22.2101 79.5864 26.3314L81.4412 53.1859C81.5547 54.8201 81.9916 56.3845 82.7415 57.8371L87.1516 66.389C87.9472 67.9008 88.4928 69.5692 88.7748 71.331L90.325 80.6858C90.6705 82.7796 90.0845 84.9048 88.7112 86.5191C87.3427 88.1333 85.342 89.0581 83.2283 89.0581" fill="#C1C1EE"/>
<path d="M80.1624 182.848C79.1835 183.314 78.1606 183.733 77.1822 184.152C57.2102 192.346 38.2144 192.439 19.2653 184.338C18.3348 183.965 17.4504 183.547 16.5183 183.127C12.0956 181.079 9.48933 176.423 10.047 171.535L19.3588 90.6651C19.7316 87.6392 21.3601 84.9857 23.6418 83.2627C25.4577 81.9593 27.646 81.168 30.0669 81.168H66.6133C68.7559 81.168 70.8044 81.8197 72.4796 82.8904C75.0875 84.6129 76.9491 87.4061 77.3219 90.6651L86.6331 171.302C86.6799 171.767 86.7266 172.186 86.7266 172.606C86.7266 177.028 84.1655 181.032 80.1624 182.848V182.848ZM95.8514 170.231L86.5402 89.6411C85.4694 80.4228 78.2992 73.2531 69.3608 72.0426C68.4765 71.9029 67.5444 71.8562 66.6133 71.8562H30.0669C28.9499 71.8562 27.8791 71.9492 26.8068 72.1356C18.1016 73.5792 11.1645 80.6092 10.1405 89.5943L0.782539 170.464C-0.24148 179.31 4.50734 187.783 12.5614 191.554C12.8875 191.694 13.1663 191.833 13.4925 191.974C24.6658 197.048 36.0729 199.609 47.6191 199.609C59.3517 199.609 71.2224 197.002 83.1415 191.741C83.4209 191.601 83.7008 191.508 83.9801 191.368C92.1277 187.69 96.9222 179.217 95.8514 170.231" fill="#474646"/>
<path d="M68.4295 176.33V188.249H28.2969V176.33C28.2969 174.794 29.5541 173.49 31.0906 173.49H65.589C67.1723 173.49 68.4295 174.794 68.4295 176.33Z" fill="#474646"/>
<path d="M80.4293 224.983H13.6407C10.4778 224.983 7.91406 222.419 7.91406 219.256C7.91406 216.093 10.4778 213.53 13.6407 213.53H80.4293C83.5922 213.53 86.156 216.093 86.156 219.256C86.156 222.419 83.5922 224.983 80.4293 224.983Z" fill="#474646"/>
<path d="M86.1676 218.976C85.1446 217.952 83.7477 217.347 82.1644 217.347H15.401C12.2355 217.347 9.6744 219.907 9.6744 223.073C9.6744 223.167 9.6744 223.306 9.72114 223.4C8.60417 222.375 7.90625 220.886 7.90625 219.256C7.90625 216.09 10.4668 213.529 13.6324 213.529H80.4409C83.5146 213.529 86.0289 215.95 86.1676 218.976" fill="#1B1B1B"/>
<path d="M83.1413 191.74C71.2222 197.002 59.3514 199.609 47.6188 199.609C36.0726 199.609 24.6656 197.048 13.4922 191.974C14.5629 188.854 16.611 186.2 19.265 184.338C38.2141 192.439 57.2099 192.346 77.182 184.152C79.8828 185.968 82.0238 188.621 83.1413 191.74" fill="#1B1B1B"/>
<path d="M68.4295 183.69V188.249H28.2969V183.69H68.4295Z" fill="#2D2C2C"/>
<path d="M79.3973 213.53H17.3008V196.973C17.3008 191.027 22.121 186.207 28.0672 186.207H68.6309C74.5771 186.207 79.3973 191.027 79.3973 196.973V213.53Z" fill="#474646"/>
<path d="M79.4171 196.955V213.53H17.3105V210.783H59.2134C67.5437 210.783 74.2964 204.029 74.2964 195.699V194.255C74.2964 191.228 73.0393 188.435 71.0364 186.48C75.8335 187.55 79.4171 191.88 79.4171 196.955" fill="#2D2C2C"/>
<path d="M69.1945 56.2864H26.9435C25.6479 56.2864 24.5977 55.2361 24.5977 53.9406C24.5977 52.6451 25.6479 51.5948 26.9435 51.5948H69.1945C70.49 51.5948 71.5403 52.6451 71.5403 53.9406C71.5403 55.2361 70.49 56.2864 69.1945 56.2864Z" fill="#474646"/>
<path d="M51.0128 86.7307H46.3574L51.0128 86.6987V86.7307Z" fill="#E3E2FF"/>
<path d="M72.4809 78.2812V82.8904C70.8057 81.8196 68.7571 81.1679 66.6146 81.1679H30.0682C27.6473 81.1679 25.459 81.9593 23.6426 83.2627V78.2812C23.6426 75.9533 24.8998 73.858 26.8081 72.7878V72.1355C27.8804 71.9491 28.9512 71.8562 30.0682 71.8562H66.6146C67.5457 71.8562 68.4778 71.9029 69.3621 72.0426V72.834C71.2237 73.9047 72.4809 75.9533 72.4809 78.2812" fill="#1B1B1B"/>
<path d="M66.0712 88.4731H30.0693C29.0936 88.4731 28.3027 87.6823 28.3027 86.7066V78.2692C28.3027 77.2935 29.0936 76.5021 30.0693 76.5021H66.0712C67.0469 76.5021 67.8378 77.2935 67.8378 78.2692V86.7066C67.8378 87.6823 67.0469 88.4731 66.0712 88.4731Z" fill="#474646"/>
<path d="M67.824 78.2813V79.0726H31.7885C30.8112 79.0726 30.0199 79.864 30.0199 80.8418V88.4774C29.0426 88.4306 28.2969 87.6854 28.2969 86.7082V78.2813C28.2969 77.3034 29.0893 76.5121 30.0666 76.5121H66.0554C67.0326 76.5121 67.824 77.3034 67.824 78.2813Z" fill="#2D2C2C"/>
<path d="M64.7018 56.2864H31.4453V76.5026H64.7018V56.2864" fill="#474646"/>
<path d="M64.7052 56.3063V59.0066H42.0129C37.9095 59.0066 34.5833 62.3328 34.5833 66.4363V76.5121H31.4629V56.3063H64.7052Z" fill="#2D2C2C"/>
<path d="M64.1188 103.946H33.4728C32.1846 103.946 31.1406 102.901 31.1406 101.614V88.4731H66.4509V101.614C66.4509 102.901 65.407 103.946 64.1188 103.946" fill="#2D2C2C"/>
<path d="M28.0173 192.911H25.3339C24.5425 192.911 23.9023 192.271 23.9023 191.48C23.9023 190.689 24.5425 190.048 25.3339 190.048H28.0173C28.8087 190.048 29.4488 190.689 29.4488 191.48C29.4488 192.271 28.8087 192.911 28.0173 192.911Z" fill="#7F7E7E"/>
<path d="M43.2691 192.911H33.5897C32.7984 192.911 32.1582 192.271 32.1582 191.48C32.1582 190.689 32.7984 190.048 33.5897 190.048H43.2691C44.0605 190.048 44.7006 190.689 44.7006 191.48C44.7006 192.271 44.0605 192.911 43.2691 192.911Z" fill="#7F7E7E"/>
<path d="M38.8234 222.983H36.9208C36.36 222.983 35.9062 222.529 35.9062 221.968C35.9062 221.407 36.36 220.953 36.9208 220.953H38.8234C39.3843 220.953 39.838 221.407 39.838 221.968C39.838 222.529 39.3843 222.983 38.8234 222.983" fill="#7F7E7E"/>
<path d="M49.6343 222.983H42.7724C42.2115 222.983 41.7578 222.529 41.7578 221.968C41.7578 221.407 42.2115 220.953 42.7724 220.953H49.6343C50.1952 220.953 50.6489 221.407 50.6489 221.968C50.6489 222.529 50.1952 222.983 49.6343 222.983" fill="#7F7E7E"/>
<path d="M53.9562 86.1415H52.0536C51.4928 86.1415 51.0391 85.6878 51.0391 85.127C51.0391 84.5661 51.4928 84.1124 52.0536 84.1124H53.9562C54.517 84.1124 54.9707 84.5661 54.9707 85.127C54.9707 85.6878 54.517 86.1415 53.9562 86.1415Z" fill="#7F7E7E"/>
<path d="M64.7711 86.1415H57.9091C57.3482 86.1415 56.8945 85.6878 56.8945 85.127C56.8945 84.5661 57.3482 84.1124 57.9091 84.1124H64.7711C65.332 84.1124 65.7857 84.5661 65.7857 85.127C65.7857 85.6878 65.332 86.1415 64.7711 86.1415Z" fill="#7F7E7E"/>
</svg>
