<svg width="25" height="22" viewBox="0 0 25 22" fill="none" xmlns="http://www.w3.org/2000/svg">
<path d="M24.2188 1.9375H0.78125C0.57405 1.9375 0.375336 1.83544 0.228823 1.65376C0.08231 1.47208 0 1.22568 0 0.96875C0 0.711822 0.08231 0.465416 0.228823 0.28374C0.375336 0.102065 0.57405 0 0.78125 0H24.2188C24.426 0 24.6247 0.102065 24.7712 0.28374C24.9177 0.465416 25 0.711822 25 0.96875C25 1.22568 24.9177 1.47208 24.7712 1.65376C24.6247 1.83544 24.426 1.9375 24.2188 1.9375Z" fill="#475972"/>
<path d="M24.2188 11.625H0.78125C0.57405 11.625 0.375336 11.5229 0.228823 11.3413C0.08231 11.1596 0 10.9132 0 10.6562C0 10.3993 0.08231 10.1529 0.228823 9.97124C0.375336 9.78956 0.57405 9.6875 0.78125 9.6875H24.2188C24.426 9.6875 24.6247 9.78956 24.7712 9.97124C24.9177 10.1529 25 10.3993 25 10.6562C25 10.9132 24.9177 11.1596 24.7712 11.3413C24.6247 11.5229 24.426 11.625 24.2188 11.625Z" fill="#475972"/>
<path d="M24.2188 21.3125H0.78125C0.57405 21.3125 0.375336 21.2104 0.228823 21.0288C0.08231 20.8471 0 20.6007 0 20.3438C0 20.0868 0.08231 19.8404 0.228823 19.6587C0.375336 19.4771 0.57405 19.375 0.78125 19.375H24.2188C24.426 19.375 24.6247 19.4771 24.7712 19.6587C24.9177 19.8404 25 20.0868 25 20.3438C25 20.6007 24.9177 20.8471 24.7712 21.0288C24.6247 21.2104 24.426 21.3125 24.2188 21.3125Z" fill="#475972"/>
</svg>
